
<svg xmlns="http://www.w3.org/2000/svg" version="1.1" xmlns:xlink="http://www.w3.org/1999/xlink" xmlns:svgjs="http://svgjs.dev/svgjs" viewBox="0 0 800 800" opacity="1"><defs><linearGradient x1="50%" y1="0%" x2="50%" y2="100%" id="gggyrate-grad"><stop stop-color="hsl(19, 89%, 49%)" stop-opacity="1" offset="0%"></stop><stop stop-color="hsl(167, 72%, 60%)" stop-opacity="1" offset="100%"></stop></linearGradient></defs><g stroke-width="2.5" stroke="url(#gggyrate-grad)" fill="none"><path d="M377.48337089769666 75.2494229490859C391.41666098620203 67.20648303374313 408.58333901379797 67.20648303374313 422.51662910230334 75.25167461199612L669.9833895882579 218.12644125484144C683.9166796767631 226.16938117018418 692.5000186905612 241.03711136643506 692.5000186905612 257.1252428600309V542.8747761457215C692.5000186905612 558.9629076393173 683.9166796767631 573.8306378355683 669.9833895882579 581.8758294138212L422.51662910230334 724.7505960566665C408.58333901379797 732.7935359720092 391.41666098620203 732.7935359720092 377.48337089769666 724.7483443937563L130.01661041174208 581.873577750911C116.08332032323682 573.8306378355683 107.49998130943874 558.9629076393173 107.49998130943874 542.8747761457215V257.1252428600309C107.49998130943874 241.03711136643506 116.08332032323682 226.16938117018418 130.01661041174208 218.1241895919312L377.48337089769666 75.2494229490859Z " transform="rotate(143, 400, 400)"></path><path d="M379.21541929018156 100.23022365710392C392.07691783341716 92.80597142755676 407.92308216658284 92.80597142755676 420.78458070981844 100.23230211517489L649.2154365430073 232.11670209318595C662.076935086243 239.5409543227331 670.0000172528258 253.26501296542625 670.0000172528258 268.1155958825916V531.8843958386137C670.0000172528258 546.7349787557791 662.076935086243 560.4590373984722 649.2154365430073 567.8853680860902L420.78458070981844 699.7697680641013C407.92308216658284 707.1940202936485 392.07691783341716 707.1940202936485 379.21541929018156 699.7676896060304L150.78456345699271 567.8832896280194C137.92306491375706 560.4590373984722 129.99998274717422 546.7349787557791 129.99998274717422 531.8843958386137V268.1155958825916C129.99998274717422 253.26501296542625 137.92306491375706 239.5409543227331 150.78456345699271 232.11462363511498L379.21541929018156 100.23022365710392Z " transform="rotate(132, 400, 400)"></path><path d="M380.94748294145546 125.21105488270007C392.73718993942146 118.40549033894851 407.26284057815667 118.40549033894851 419.0525475761226 125.21296013593178L628.4474987565458 246.1069934491086C640.2372057545117 252.91255799286017 647.5000310738794 265.4929450819956 647.5000310738794 279.10597942273046V520.8940460490841C647.5000310738794 534.507080389819 640.2372057545117 547.0874674789543 628.4474987565458 553.8949372759375L419.0525475761226 674.7889705891145C407.26284057815667 681.594535132866 392.73718993942146 681.594535132866 380.94748294145546 674.7870653358827L171.55253176103236 553.8930320227059C159.76282476306636 547.0874674789543 152.49999944369875 534.507080389819 152.49999944369875 520.8940460490841V279.10597942273046C152.49999944369875 265.4929450819956 159.76282476306636 252.91255799286017 171.55253176103236 246.10508819587687L380.94748294145546 125.21105488270007Z " transform="rotate(121, 400, 400)"></path><path d="M382.67951607515124 150.1918555907181C393.39743152784763 144.00497873276214 406.60256847215237 144.00497873276214 417.32048392484876 150.1935876391106L607.6795304525061 260.0972542874531C618.3974459052024 266.2841311454091 625.0000143773548 277.7208466809867 625.0000143773548 290.0963324452912V509.9036657419763C625.0000143773548 522.2791515062808 618.3974459052024 533.7158670418584 607.6795304525061 539.9044759482067L417.32048392484876 649.8081425965493C406.60256847215237 655.9950194545054 393.39743152784763 655.9950194545054 382.67951607515124 649.8064105481569L192.32046954749393 539.9027438998144C181.60255409479754 533.7158670418584 174.99998562264517 522.2791515062808 174.99998562264517 509.9036657419763V290.0963324452912C174.99998562264517 277.7208466809867 181.60255409479754 266.2841311454091 192.32046954749393 260.0955222390607L382.67951607515124 150.1918555907181Z " transform="rotate(110, 400, 400)"></path><path d="M384.41156446763614 175.17265629873611C394.05768837506287 169.60446712657577 405.94231162493713 169.60446712657577 415.58843553236386 175.17421514228937L586.9115774072554 274.08751512579767C596.5577013146822 279.65570429795804 602.5000129396193 289.94874827997785 602.5000129396193 301.0866854678519V498.9132854348685C602.5000129396193 510.05122262274244 596.5577013146822 520.3442666047624 586.9115774072554 525.9140146204759L415.58843553236386 624.8273146039842C405.94231162493713 630.3955037761446 394.05768837506287 630.3955037761446 384.41156446763614 624.8257557604311L213.0884225927445 525.9124557769228C203.44229868531778 520.3442666047624 197.49998706038065 510.05122262274244 197.49998706038065 498.9132854348685V301.0866854678519C197.49998706038065 289.94874827997785 203.44229868531778 279.65570429795804 213.0884225927445 274.08595628224447L384.41156446763614 175.17265629873611Z " transform="rotate(99, 400, 400)"></path><path d="M386.14361286012104 200.15348752433232C394.7179452222781 195.20398603796752 405.2820547777219 195.20398603796752 413.85638713987896 200.15487316304626L566.1436243620049 288.0778064817203C574.7179567241619 293.0273079680851 580.0000115018838 302.17668039654717 580.0000115018838 312.07706900799076V487.92293564533884C580.0000115018838 497.82332425678237 574.7179567241619 506.9726966852445 566.1436243620049 511.9235838103232L413.85638713987896 599.8465171289972C405.2820547777219 604.7960186153621 394.7179452222781 604.7960186153621 386.14361286012104 599.8451314902834L233.85637563799514 511.92219817160935C225.28204327583802 506.9726966852445 219.99998849811612 497.82332425678237 219.99998849811612 487.92293564533884V312.07706900799076C219.99998849811612 302.17668039654717 225.28204327583802 293.0273079680851 233.85637563799514 288.07642084300636L386.14361286012104 200.15348752433232Z " transform="rotate(88, 400, 400)"></path><path d="M387.87566125260594 225.1343034911394C395.37820206949334 220.80348969057022 404.62179793050666 220.80348969057022 412.12433874739406 225.13551592501415L545.3756713167543 302.06808257885393C552.8782121336417 306.3988963794231 557.5000100641483 314.4045972543274 557.5000100641483 323.06743728934055V476.9325705970201C557.5000100641483 485.59541063203324 552.8782121336417 493.6011115069375 545.3756713167543 497.9331377413814L412.12433874739406 574.8657043952212C404.62179793050666 579.1965181957904 395.37820206949334 579.1965181957904 387.87566125260594 574.8644919613465L254.62432868324572 497.93192530750673C247.12178786635826 493.6011115069375 242.4999899358516 485.59541063203324 242.4999899358516 476.9325705970201V323.06743728934055C242.4999899358516 314.4045972543274 247.12178786635826 306.3988963794231 254.62432868324572 302.0668701449792L387.87566125260594 225.1343034911394Z " transform="rotate(77, 400, 400)"></path><path d="M389.6077096450908 250.11510419915743C396.0384589167086 246.40297808438385 403.9615410832914 246.40297808438385 410.3922903549092 250.1161434281929L524.6077182715037 316.05834341719844C531.0384675431214 319.770469531972 535.0000086264129 326.63249885331857 535.0000086264129 334.0577903119013V465.94219028991233C535.0000086264129 473.36748174849504 531.0384675431214 480.2295110698416 524.6077182715037 483.9426764136506L410.3922903549092 549.8848764026561C403.9615410832914 553.5970025174297 396.0384589167086 553.5970025174297 389.6077096450908 549.8838371736207L275.39228172849636 483.94163718461516C268.9615324568785 480.2295110698416 264.99999137358714 473.36748174849504 264.99999137358714 465.94219028991233V334.0577903119013C264.99999137358714 326.63249885331857 268.9615324568785 319.770469531972 275.39228172849636 316.05730418816296L389.6077096450908 250.11510419915743Z " transform="rotate(66, 400, 400)"></path><path d="M391.3397580375756 275.09592779535905C396.6987157639238 272.00248936638104 403.3012842360762 272.00248936638104 408.6602419624244 275.0967938195553L503.83976522625306 330.04862714372655C509.1987229526012 333.14206557270455 512.5000071886774 338.86042334049336 512.5000071886774 345.0481662226456V454.95183287098814C512.5000071886774 461.1395757531404 509.1987229526012 466.8579335209292 503.83976522625306 469.95223797410335L408.6602419624244 524.9040712982746C403.3012842360762 527.9975097272527 396.6987157639238 527.9975097272527 391.3397580375756 524.9032052740785L296.16023477374694 469.9513719499072C290.80127704739874 466.8579335209292 287.4999928113226 461.1395757531404 287.4999928113226 454.95183287098814V345.0481662226456C287.4999928113226 338.86042334049336 290.80127704739874 333.14206557270455 296.16023477374694 330.0477611195303L391.3397580375756 275.09592779535905Z " transform="rotate(55, 400, 400)"></path><path d="M393.0718064300605 300.0767437621662C397.35897261113905 297.60199301898376 402.64102738886095 297.60199301898376 406.9281935699395 300.0774365815231L483.07181218100243 344.0389032408602C487.35897836208096 346.51365398404255 490.0000057509419 351.0883401982736 490.0000057509419 356.0385345039954V443.9614678226694C490.0000057509419 448.9116621283912 487.35897836208096 453.48634834262225 483.07181218100243 455.9617919051616L406.9281935699395 499.9232585644986C402.64102738886095 502.39800930768104 397.35897261113905 502.39800930768104 393.0718064300605 499.9225657451417L316.92818781899757 455.9610990858047C312.64102163791904 453.48634834262225 309.9999942490581 448.9116621283912 309.9999942490581 443.9614678226694V356.0385345039954C309.9999942490581 351.0883401982736 312.64102163791904 346.51365398404255 316.92818781899757 344.0382104215032L393.0718064300605 300.0767437621662Z " transform="rotate(44, 400, 400)"></path><path d="M394.80385482254536 325.0575597289733C398.0192294583543 323.2014966715865 401.9807705416457 323.2014966715865 405.1961451774546 325.058079343491L462.30385913575185 358.02917933799375C465.5192337715607 359.88524239538054 467.50000431320643 363.3162570560538 467.50000431320643 367.02890278534517V432.9711027743507C467.50000431320643 436.68374850364205 465.5192337715607 440.1147631643153 462.30385913575185 441.9713458362198L405.1961451774546 474.9424458307226C401.9807705416457 476.7985088881094 398.0192294583543 476.7985088881094 394.80385482254536 474.9419262162049L337.69614086424815 441.9708262217021C334.4807662284393 440.1147631643153 332.49999568679357 436.68374850364205 332.49999568679357 432.9711027743507V367.02890278534517C332.49999568679357 363.3162570560538 334.4807662284393 359.88524239538054 337.69614086424815 358.02865972347604L394.80385482254536 325.0575597289733Z " transform="rotate(33, 400, 400)"></path><path d="M396.53590321503026 350.03837569578036C398.6794863055695 348.80100032418915 401.3205136944305 348.80100032418915 403.46409678496974 350.0387221054589L441.5359060905012 372.0194554351273C443.6794891810405 373.25683080671854 445.00000287547095 375.5441739138341 445.00000287547095 378.01927106669496V421.980737726032C445.00000287547095 424.45583487889286 443.6794891810405 426.7431779860084 441.5359060905012 427.98089976727806L403.46409678496974 449.96163309694657C401.3205136944305 451.1990084685378 398.6794863055695 451.1990084685378 396.53590321503026 449.9612866872681L358.4640939094988 427.9805533575996C356.3205108189595 426.7431779860084 354.99999712452905 424.45583487889286 354.99999712452905 421.980737726032V378.01927106669496C354.99999712452905 375.5441739138341 356.3205108189595 373.25683080671854 358.4640939094988 372.01910902544887L396.53590321503026 350.03837569578036Z " transform="rotate(22, 400, 400)"></path><path d="M398.2679516075151 375.01919166258745C399.33974315278476 374.4005039767918 400.66025684721524 374.4005039767918 401.7320483924849 375.0193648674267L420.76795304525064 386.00973153226096C421.83974459052024 386.62841921805654 422.5000014377355 387.7720907716143 422.5000014377355 389.00963934804474V410.99037267771325C422.5000014377355 412.2279212541437 421.83974459052024 413.37159280770146 420.76795304525064 413.9904536983363L401.7320483924849 424.98082036317055C400.66025684721524 425.5995080489662 399.33974315278476 425.5995080489662 398.2679516075151 424.9806471583313L379.23204695474936 413.99028049349704C378.16025540947976 413.37159280770146 377.4999985622645 412.2279212541437 377.4999985622645 410.99037267771325V389.00963934804474C377.4999985622645 387.7720907716143 378.16025540947976 386.62841921805654 379.23204695474936 386.0095583274217L398.2679516075151 375.01919166258745Z " transform="rotate(11, 400, 400)"></path></g></svg>
