<svg class="MuiSvgIcon-root MuiSvgIcon-fontSizeMedium css-kyuxxq" focusable="false" aria-hidden="true" viewBox="0 8.890000343322754 690.260009765625 40.54999923706055" xmlns="http://www.w3.org/2000/svg" data-asc="0.927734375"><g fill="#6a2bfd"><g fill="#6a2bfd" transform="translate(0, -80)"><path fill="grey" d="M7.10 31.30L21.02 36.21L21.02 43.04L0 34.13L0 28.37L21.02 19.46L21.02 26.29L7.10 31.30Z"></path><path fill="#349CD6" stroke="#1F38A1" d="M35.28 13.48L35.28 19.97L39.79 19.97L39.79 25.15L35.28 25.15L35.28 38.33Q35.28 39.79 35.84 40.43Q36.40 41.06 37.99 41.06Q39.16 41.06 40.06 40.89L40.06 46.24Q37.99 46.88 35.79 46.88Q28.37 46.88 28.22 39.38L28.22 25.15L24.37 25.15L24.37 19.97L28.22 19.97L28.22 13.48L35.28 13.48ZM59.03 46.39Q58.54 45.43 58.33 44.02Q55.76 46.88 51.66 46.88Q47.78 46.88 45.23 44.63Q42.68 42.38 42.68 38.96Q42.68 34.77 45.79 32.52Q48.90 30.27 54.79 30.25L58.03 30.25L58.03 28.74Q58.03 26.90 57.09 25.81Q56.15 24.71 54.13 24.71Q52.34 24.71 51.33 25.56Q50.32 26.42 50.32 27.91L43.26 27.91Q43.26 25.61 44.68 23.66Q46.09 21.70 48.68 20.59Q51.27 19.48 54.49 19.48Q59.38 19.48 62.24 21.94Q65.11 24.39 65.11 28.83L65.11 40.28Q65.14 44.04 66.16 45.97L66.16 46.39L59.03 46.39M53.20 41.48Q54.76 41.48 56.08 40.78Q57.40 40.09 58.03 38.92L58.03 34.38L55.40 34.38Q50.10 34.38 49.76 38.04L49.73 38.45Q49.73 39.77 50.66 40.63Q51.59 41.48 53.20 41.48ZM77.98 46.39L70.90 46.39L70.90 8.89L77.98 8.89L77.98 46.39ZM95.95 46.88Q90.14 46.88 86.49 43.31Q82.84 39.75 82.84 33.81L82.84 33.13Q82.84 29.15 84.38 26.01Q85.91 22.88 88.73 21.18Q91.55 19.48 95.17 19.48Q100.59 19.48 103.70 22.90Q106.81 26.32 106.81 32.59L106.81 35.47L89.99 35.47Q90.33 38.06 92.05 39.62Q93.77 41.19 96.41 41.19Q100.49 41.19 102.78 38.23L106.25 42.11Q104.66 44.36 101.95 45.62Q99.24 46.88 95.95 46.88M95.14 25.20Q93.04 25.20 91.74 26.61Q90.43 28.03 90.06 30.66L99.88 30.66L99.88 30.10Q99.83 27.76 98.61 26.48Q97.39 25.20 95.14 25.20ZM117.31 19.97L117.53 23.02Q120.36 19.48 125.12 19.48Q129.32 19.48 131.37 21.95Q133.42 24.41 133.47 29.32L133.47 46.39L126.42 46.39L126.42 29.49Q126.42 27.25 125.44 26.23Q124.46 25.22 122.19 25.22Q119.21 25.22 117.72 27.76L117.72 46.39L110.67 46.39L110.67 19.97L117.31 19.97ZM147.27 13.48L147.27 19.97L151.78 19.97L151.78 25.15L147.27 25.15L147.27 38.33Q147.27 39.79 147.83 40.43Q148.39 41.06 149.98 41.06Q151.15 41.06 152.05 40.89L152.05 46.24Q149.98 46.88 147.78 46.88Q140.36 46.88 140.21 39.38L140.21 25.15L136.35 25.15L136.35 19.97L140.21 19.97L140.21 13.48L147.27 13.48Z"></path></g><g fill="#6a2bfd" transform="translate(-55.0, -20.0)"><path fill="#9ABBF9" stroke="#501F1F" d="M174.66 19.97L174.88 23.02Q177.71 19.48 182.47 19.48Q186.67 19.48 188.72 21.95Q190.77 24.41 190.82 29.32L190.82 46.39L183.76 46.39L183.76 29.49Q183.76 27.25 182.79 26.23Q181.81 25.22 179.54 25.22Q176.56 25.22 175.07 27.76L175.07 46.39L168.02 46.39L168.02 19.97L174.66 19.97ZM211.47 46.39Q210.99 45.43 210.77 44.02Q208.20 46.88 204.10 46.88Q200.22 46.88 197.67 44.63Q195.12 42.38 195.12 38.96Q195.12 34.77 198.23 32.52Q201.34 30.27 207.23 30.25L210.47 30.25L210.47 28.74Q210.47 26.90 209.53 25.81Q208.59 24.71 206.57 24.71Q204.79 24.71 203.77 25.56Q202.76 26.42 202.76 27.91L195.70 27.91Q195.70 25.61 197.12 23.66Q198.54 21.70 201.12 20.59Q203.71 19.48 206.93 19.48Q211.82 19.48 214.69 21.94Q217.55 24.39 217.55 28.83L217.55 40.28Q217.58 44.04 218.60 45.97L218.60 46.39L211.47 46.39M205.64 41.48Q207.20 41.48 208.52 40.78Q209.84 40.09 210.47 38.92L210.47 34.38L207.84 34.38Q202.54 34.38 202.20 38.04L202.17 38.45Q202.17 39.77 203.10 40.63Q204.03 41.48 205.64 41.48ZM229.59 19.97L229.81 22.92Q232.62 19.48 237.40 19.48Q242.50 19.48 244.41 23.51Q247.19 19.48 252.34 19.48Q256.64 19.48 258.74 21.98Q260.84 24.49 260.84 29.52L260.84 46.39L253.76 46.39L253.76 29.54Q253.76 27.29 252.88 26.26Q252.00 25.22 249.78 25.22Q246.61 25.22 245.39 28.25L245.41 46.39L238.35 46.39L238.35 29.57Q238.35 27.27 237.45 26.25Q236.55 25.22 234.38 25.22Q231.37 25.22 230.03 27.71L230.03 46.39L222.97 46.39L222.97 19.97L229.59 19.97ZM278.42 46.88Q272.61 46.88 268.96 43.31Q265.31 39.75 265.31 33.81L265.31 33.13Q265.31 29.15 266.85 26.01Q268.38 22.88 271.20 21.18Q274.02 19.48 277.64 19.48Q283.06 19.48 286.17 22.90Q289.28 26.32 289.28 32.59L289.28 35.47L272.46 35.47Q272.80 38.06 274.52 39.62Q276.25 41.19 278.88 41.19Q282.96 41.19 285.25 38.23L288.72 42.11Q287.13 44.36 284.42 45.62Q281.71 46.88 278.42 46.88M277.61 25.20Q275.51 25.20 274.21 26.61Q272.90 28.03 272.53 30.66L282.35 30.66L282.35 30.10Q282.30 27.76 281.08 26.48Q279.86 25.20 277.61 25.20ZM315.72 28.17L293.90 28.17L293.90 22.41L315.72 22.41L315.72 28.17M315.72 38.75L293.90 38.75L293.90 32.98L315.72 32.98L315.72 38.75Z"></path><path fill="#CE915B" stroke="#501F1F" d="M325.68 12.26L324.71 22.29L320.75 22.29L320.75 8.89L325.68 8.89L325.68 12.26M333.62 12.26L332.67 22.29L328.71 22.29L328.71 8.89L333.62 8.89L333.62 12.26ZM346.19 46.39L338.87 46.39L338.87 10.84L346.19 10.84L346.19 46.39ZM367.82 46.39Q367.33 45.43 367.11 44.02Q364.55 46.88 360.45 46.88Q356.57 46.88 354.02 44.63Q351.46 42.38 351.46 38.96Q351.46 34.77 354.58 32.52Q357.69 30.27 363.57 30.25L366.82 30.25L366.82 28.74Q366.82 26.90 365.88 25.81Q364.94 24.71 362.92 24.71Q361.13 24.71 360.12 25.56Q359.11 26.42 359.11 27.91L352.05 27.91Q352.05 25.61 353.47 23.66Q354.88 21.70 357.47 20.59Q360.06 19.48 363.28 19.48Q368.16 19.48 371.03 21.94Q373.90 24.39 373.90 28.83L373.90 40.28Q373.93 44.04 374.95 45.97L374.95 46.39L367.82 46.39M361.99 41.48Q363.55 41.48 364.87 40.78Q366.19 40.09 366.82 38.92L366.82 34.38L364.18 34.38Q358.89 34.38 358.54 38.04L358.52 38.45Q358.52 39.77 359.45 40.63Q360.38 41.48 361.99 41.48ZM385.82 19.97L386.04 23.02Q388.87 19.48 393.63 19.48Q397.83 19.48 399.88 21.95Q401.93 24.41 401.98 29.32L401.98 46.39L394.92 46.39L394.92 29.49Q394.92 27.25 393.95 26.23Q392.97 25.22 390.70 25.22Q387.72 25.22 386.23 27.76L386.23 46.39L379.17 46.39L379.17 19.97L385.82 19.97ZM429.81 10.84L438.94 36.62L448.02 10.84L457.64 10.84L457.64 46.39L450.29 46.39L450.29 36.67L451.03 19.90L441.43 46.39L436.40 46.39L426.83 19.92L427.56 36.67L427.56 46.39L420.24 46.39L420.24 10.84L429.81 10.84ZM462.48 32.93Q462.48 29.00 463.99 25.93Q465.50 22.85 468.35 21.17Q471.19 19.48 474.95 19.48Q480.30 19.48 483.68 22.75Q487.06 26.03 487.45 31.64L487.50 33.45Q487.50 39.53 484.11 43.20Q480.71 46.88 475 46.88Q469.29 46.88 465.88 43.21Q462.48 39.55 462.48 33.25L462.48 32.93M469.53 33.45Q469.53 37.21 470.95 39.20Q472.36 41.19 475 41.19Q477.56 41.19 479.00 39.22Q480.44 37.26 480.44 32.93Q480.44 29.25 479.00 27.22Q477.56 25.20 474.95 25.20Q472.36 25.20 470.95 27.21Q469.53 29.22 469.53 33.45ZM506.69 26.59Q505.25 26.39 504.15 26.39Q500.15 26.39 498.90 29.10L498.90 46.39L491.85 46.39L491.85 19.97L498.51 19.97L498.71 23.12Q500.83 19.48 504.59 19.48Q505.76 19.48 506.79 19.80L506.69 26.59ZM524.93 26.59Q523.49 26.39 522.39 26.39Q518.38 26.39 517.14 29.10L517.14 46.39L510.08 46.39L510.08 19.97L516.75 19.97L516.94 23.12Q519.07 19.48 522.83 19.48Q524.00 19.48 525.02 19.80L524.93 26.59ZM535.77 46.39L528.69 46.39L528.69 19.97L535.77 19.97L535.77 46.39M528.27 13.13Q528.27 11.55 529.33 10.52Q530.40 9.50 532.23 9.50Q534.03 9.50 535.11 10.52Q536.18 11.55 536.18 13.13Q536.18 14.75 535.10 15.77Q534.01 16.80 532.23 16.80Q530.44 16.80 529.36 15.77Q528.27 14.75 528.27 13.13ZM555.88 39.09Q555.88 37.79 554.60 37.05Q553.32 36.30 550.49 35.72Q541.06 33.74 541.06 27.71Q541.06 24.19 543.98 21.84Q546.90 19.48 551.61 19.48Q556.64 19.48 559.66 21.85Q562.67 24.22 562.67 28.00L555.62 28.00Q555.62 26.49 554.64 25.50Q553.66 24.51 551.59 24.51Q549.80 24.51 548.83 25.32Q547.85 26.12 547.85 27.37Q547.85 28.54 548.96 29.26Q550.07 29.98 552.71 30.51Q555.35 31.03 557.15 31.69Q562.74 33.74 562.74 38.79Q562.74 42.41 559.64 44.64Q556.54 46.88 551.64 46.88Q548.32 46.88 545.74 45.69Q543.16 44.51 541.70 42.44Q540.23 40.38 540.23 37.99L546.92 37.99Q547.02 39.87 548.32 40.87Q549.61 41.87 551.78 41.87Q553.81 41.87 554.85 41.10Q555.88 40.33 555.88 39.09ZM566.19 32.93Q566.19 29.00 567.70 25.93Q569.21 22.85 572.06 21.17Q574.90 19.48 578.66 19.48Q584.01 19.48 587.39 22.75Q590.77 26.03 591.16 31.64L591.21 33.45Q591.21 39.53 587.82 43.20Q584.42 46.88 578.71 46.88Q573.00 46.88 569.59 43.21Q566.19 39.55 566.19 33.25L566.19 32.93M573.24 33.45Q573.24 37.21 574.66 39.20Q576.07 41.19 578.71 41.19Q581.27 41.19 582.71 39.22Q584.16 37.26 584.16 32.93Q584.16 29.25 582.71 27.22Q581.27 25.20 578.66 25.20Q576.07 25.20 574.66 27.21Q573.24 29.22 573.24 33.45ZM602.05 19.97L602.27 23.02Q605.10 19.48 609.86 19.48Q614.06 19.48 616.11 21.95Q618.16 24.41 618.21 29.32L618.21 46.39L611.16 46.39L611.16 29.49Q611.16 27.25 610.18 26.23Q609.20 25.22 606.93 25.22Q603.96 25.22 602.47 27.76L602.47 46.39L595.41 46.39L595.41 19.97L602.05 19.97ZM625.39 12.26L624.41 22.29L620.46 22.29L620.46 8.89L625.39 8.89L625.39 12.26M633.33 12.26L632.37 22.29L628.42 22.29L628.42 8.89L633.33 8.89L633.33 12.26Z"></path></g><g fill="#6a2bfd" transform="translate(-640.0, 32.20703125)"><path fill="grey" d="M652.32 49.44L647.07 49.44L660.16 10.84L665.41 10.84L652.32 49.44ZM683.18 31.23L668.99 26.27L668.99 19.48L690.26 28.39L690.26 34.13L668.99 43.07L668.99 36.25L683.18 31.23Z"></path></g></g></svg>